<svg width="20" height="20" viewBox="0 0 20 20" fill="none" xmlns="http://www.w3.org/2000/svg">
<g clip-path="url(#clip0_172_9183)">
<path fill-rule="evenodd" clip-rule="evenodd" d="M10.7524 13.3301C11.5824 12.85 12.3068 12.2076 12.8823 11.4464C12.706 11.1774 12.5712 10.8624 12.4921 10.5014L12.4647 10.3762C12.3042 9.64273 11.7158 9.07929 10.9761 8.9506C8.01636 8.43569 8.01628 4.18683 10.9761 3.6719C11.6917 3.54741 12.2656 3.01607 12.4476 2.3176C11.1418 0.893117 9.26568 0 7.18094 0C3.23606 0 0.0380859 3.19797 0.0380859 7.14286C0.0380859 9.78673 1.47451 12.0951 3.60951 13.3301V15C3.60951 15.789 4.24911 16.4286 5.03808 16.4286H9.3238C10.1128 16.4286 10.7524 15.789 10.7524 15V13.3301ZM3.60951 18.9286C3.60951 18.3369 4.08921 17.8571 4.68094 17.8571H9.68094C10.2727 17.8571 10.7524 18.3369 10.7524 18.9286C10.7524 19.5203 10.2727 20 9.68094 20H4.68094C4.08921 20 3.60951 19.5203 3.60951 18.9286ZM14.0094 2.45324C14.2709 1.25848 15.9721 1.25104 16.2441 2.44347L16.2569 2.49984C16.2655 2.53827 16.2736 2.57377 16.2824 2.61077C16.5956 3.94519 17.6755 4.96481 19.0274 5.2C20.2735 5.4168 20.2735 7.2057 19.0274 7.4225C17.6684 7.65894 16.5841 8.6882 16.2774 10.0331L16.2441 10.179C15.9721 11.3715 14.2709 11.364 14.0094 10.1693L13.982 10.0441C13.6865 8.69421 12.6037 7.65727 11.2423 7.42044C9.99848 7.20404 9.99847 5.41846 11.2423 5.20207C12.5989 4.96606 13.6789 3.9355 13.9788 2.59254L13.9991 2.50041L14.0094 2.45324Z" fill="white"/>
</g>
<defs>
<clipPath id="clip0_172_9183">
<rect width="20" height="20" fill="white"/>
</clipPath>
</defs>
</svg>
